<?xml version="1.0" encoding="UTF-8"?>
<svg xmlns="http://www.w3.org/2000/svg" xmlns:xlink="http://www.w3.org/1999/xlink" width="30" height="40" viewBox="0 0 30 40" version="1.1">
<g id="surface1">
<path style=" stroke:none;fill-rule:nonzero;fill:rgb(95.294118%,41.568627%,36.470588%);fill-opacity:1;" d="M 25.429688 26.109375 L 12.53125 26.109375 C 5.628906 26.109375 0.0078125 20.339844 0.0078125 13.246094 L 0.0078125 0 L 12.90625 0 C 19.8125 0 25.429688 5.769531 25.429688 12.863281 Z M 4.535156 4.648438 L 4.535156 13.246094 C 4.535156 17.777344 8.121094 21.460938 12.53125 21.460938 L 20.902344 21.460938 L 20.902344 12.863281 C 20.902344 8.332031 17.316406 4.648438 12.90625 4.648438 Z M 4.535156 4.648438 "/>
<path style=" stroke:none;fill-rule:nonzero;fill:rgb(95.294118%,41.568627%,36.470588%);fill-opacity:1;" d="M 19.546875 40 L 16.339844 40 C 13.09375 40 10.457031 37.289062 10.457031 33.957031 L 10.457031 30.75 L 14.980469 30.75 L 14.980469 33.957031 C 14.980469 34.726562 15.589844 35.351562 16.339844 35.351562 L 19.546875 35.351562 C 20.292969 35.351562 20.902344 34.726562 20.902344 33.957031 L 20.902344 21.460938 L 29.992188 21.460938 L 29.992188 26.109375 L 25.429688 26.109375 L 25.429688 33.957031 C 25.429688 37.289062 22.789062 40 19.542969 40 Z M 19.546875 40 "/>
<path style=" stroke:none;fill-rule:nonzero;fill:rgb(95.294118%,41.568627%,36.470588%);fill-opacity:1;" d="M 15.285156 13.054688 C 15.285156 14.507812 14.136719 15.6875 12.71875 15.6875 C 11.300781 15.6875 10.152344 14.507812 10.152344 13.054688 C 10.152344 11.597656 11.300781 10.421875 12.71875 10.421875 C 14.136719 10.421875 15.285156 11.597656 15.285156 13.054688 Z M 15.285156 13.054688 "/>
</g>
</svg>
