<?xml version="1.0" encoding="UTF-8"?><svg id="_лой_2" xmlns="http://www.w3.org/2000/svg" viewBox="0 0 855.29 191.6"><defs><style>.cls-1{fill:#222629;}</style></defs><g id="TT"><g><path class="cls-1" d="M247.08,118.92l-.86,.37c-.73,.22-1.77,.45-3.08,.66-1.48,.25-2.77,.37-3.95,.37-6.94,0-10.45-3.49-10.45-10.39v-36.55h18.17v-19.94h-18.17v-21.31h-22.33v21.31h-9.1v19.94h9.09v43.6c0,7.15,2.23,12.72,6.64,16.54,4.36,3.79,10.64,5.71,18.66,5.71,8.29-.08,14.65-1.29,18.89-3.64l-3.51-16.67Z"/><path class="cls-1" d="M310.32,118.92l-.86,.37c-.74,.22-1.77,.45-3.09,.66-1.48,.25-2.77,.37-3.95,.37-6.94,0-10.45-3.49-10.45-10.39v-36.55h18.17v-19.94h-18.17v-21.31h-22.32v21.31h-9.1v19.94h9.09v43.6c0,7.15,2.23,12.72,6.63,16.54,4.37,3.79,10.64,5.71,18.66,5.71,8.29-.08,14.65-1.29,18.89-3.64l-3.5-16.67Z"/><path class="cls-1" d="M456.5,61.4c-5.49-6.29-12.84-9.48-21.85-9.48h-.08c-11.18,0-21.45,5.24-30.57,15.59l-.13,.14-.09-.18c-2.58-4.87-6.14-8.75-10.56-11.5-4.39-2.74-9.5-4.13-15.19-4.13-9.61,.08-18.58,4.61-26.65,13.47l-.23,.26v-12.14h-22.41v84.12h22.41v-45.72c0-4.99,1.72-9.57,5.11-13.62,3.43-4.08,7.72-6.15,12.75-6.15s8.89,1.63,11.95,4.84c3.06,3.21,4.62,7.69,4.62,13.32v47.33h22.33v-46.02c0-5.7,1.72-10.43,5.12-14.05,3.43-3.64,7.64-5.49,12.53-5.49s9.17,1.63,12.24,4.85c3.06,3.21,4.62,7.62,4.62,13.1v47.61h22.33v-50.59c0-10.7-2.78-19.31-8.25-25.57Z"/><path class="cls-1" d="M597.05,61.4c-5.55-6.25-12.94-9.49-21.99-9.62l.28,.14h-.58c-10.45,0-20.39,4.75-29.55,14.13l-.24,.24V32.13h-22.4v105.43h22.4v-46.16c0-5.68,1.93-10.41,5.71-14.05s8.69-5.49,14.56-5.49c5.47,0,9.91,1.71,13.19,5.06,3.25,3.33,4.9,8.11,4.9,14.2v46.31h22.33v-49.73c0-11.01-2.9-19.86-8.61-26.29Z"/><path class="cls-1" d="M706.99,97.44c0-14.36-4-25.68-11.88-33.64-7.86-7.92-18.32-11.95-31.09-11.95-5.2,0-10.39,.93-15.43,2.76-4.97,1.8-9.63,4.48-13.85,7.97-4.2,3.48-7.61,8.13-10.14,13.84-2.55,5.76-3.84,12.22-3.84,19.21,0,13.32,4.21,24.07,12.53,31.95,8.26,7.84,19.86,11.81,34.47,11.81l.33-.14c4.26,0,8.43-.51,12.39-1.52,3.97-1.01,7.19-2.18,9.57-3.48,2.38-1.29,4.65-2.83,6.74-4.56,1.93-1.6,3.46-2.88,4.05-3.55,.53-.59,.94-1.07,1.23-1.42l-11.89-11.32-2.31,1.89c-1.53,1.17-4.1,2.42-7.67,3.73-3.6,1.32-7.21,1.97-11.02,1.97-7.22,0-13.05-1.58-17.31-4.68-4.29-3.13-7.09-6.96-8.33-11.41l-.05-.18h63.08c.27-2.15,.42-4.59,.42-7.28Zm-23.13-7.36h-40.48v-.14c.23-5.05,2.18-9.48,5.79-13.17,3.67-3.74,8.5-5.57,14.78-5.57s11.04,1.83,14.57,5.57c3.47,3.69,5.26,8.12,5.34,13.18v.13Z"/><path class="cls-1" d="M723.41,32.13v105.43h22.4V32.13h-22.4Z"/><path class="cls-1" d="M844.92,63.94c-6.86-8.02-15.83-12.1-26.64-12.1h-.13v-.07c-12.01,.03-21.19,4.02-27.31,11.87l-.24,.32v-10.52h-21.75v108.93h21.75v-35.32l.24,.32c6.14,7.87,15.38,11.87,27.44,11.87,10.9,0,19.89-4.04,26.72-12.02,6.83-7.98,10.29-18.61,10.29-31.6s-3.49-23.64-10.37-31.68Zm-17.82,48.49c-3.93,4.37-9.25,6.58-15.79,6.58s-11.8-2.21-15.52-6.59c-3.73-4.39-5.63-10.09-5.63-16.94s1.89-12.35,5.63-16.74c3.72-4.38,8.94-6.59,15.52-6.59s11.87,2.21,15.79,6.58c3.93,4.37,5.92,10,5.92,16.75s-1.99,12.59-5.92,16.96Z"/><g><path class="cls-1" d="M125.07,125.07H61.61C27.64,125.07,0,97.43,0,63.45V0H63.45c33.97,0,61.61,27.64,61.61,61.61v63.45ZM22.27,22.27V63.45c0,21.69,17.65,39.34,39.34,39.34h41.18V61.61c0-21.69-17.65-39.34-39.34-39.34H22.27Z"/><path class="cls-1" d="M96.11,191.6h-15.77c-15.96,0-28.95-12.99-28.95-28.95v-15.35h22.27v15.35c0,3.68,3,6.68,6.68,6.68h15.77c3.68,0,6.68-3,6.68-6.68v-59.85h44.71v22.27h-22.44v37.58c0,15.96-12.99,28.95-28.95,28.95Z"/><circle class="cls-1" cx="62.53" cy="62.53" r="12.62"/></g></g></g></svg>