<svg width="16" height="16" xmlns="http://www.w3.org/2000/svg">

 <g>
  <title>Layer 1</title>
  <path id="svg_1" fill="#fff" d="m8,14.5c3.86599,0 7,-2.94746 7,-6.58333s-3.134,-6.58333 -7,-6.58333s-7,2.94746 -7,6.58333s3.134,6.58333 7,6.58333zm-1.16417,-5.24431l3.24577,-2.75471c0.14246,-0.11891 -0.03111,-0.17689 -0.22022,-0.06904l-4.00592,2.37686l-1.73034,-0.50792c-0.37368,-0.1076 -0.37636,-0.3491 0.08389,-0.52272l6.74275,-2.44521c0.30796,-0.13149 0.60519,0.06956 0.48763,0.51285l-1.14829,5.08908c-0.08018,0.36164 -0.31252,0.44813 -0.63444,0.28108l-1.7492,-1.21541l-0.8408,0.7689c-0.09768,0.08931 -0.175,0.16458 -0.35,0.16458l0.11912,-1.67837l0.00004,0.00003z"/>
 </g>
</svg>