<svg width="400" height="400" xmlns="http://www.w3.org/2000/svg">

 <g>
  <title>Layer 1</title>
  <path id="svg_1" fill="#000" d="m158.36677,250.26398l0,-108.19341l103.41394,54.09826l-103.41394,54.09516zm230.0317,-142.23719c-4.55073,-15.75521 -17.95842,-28.16309 -34.98107,-32.37399c-30.85524,-7.6528 -154.58474,-7.6528 -154.58474,-7.6528s-123.72782,0 -154.58305,7.6528c-17.02265,4.2109 -30.43035,16.61878 -34.98107,32.37399c-8.26853,28.5569 -8.26853,88.14049 -8.26853,88.14049s0,59.58049 8.26853,88.13893c4.55073,15.75676 17.95674,28.16309 34.98107,32.37709c30.85524,7.64969 154.58305,7.64969 154.58305,7.64969s123.7295,0 154.58474,-7.64969c17.02265,-4.214 30.43035,-16.62033 34.98107,-32.37709c8.26853,-28.55845 8.26853,-88.14049 8.26853,-88.14049s0,-59.58204 -8.26853,-88.13893"/>
 </g>
</svg>