<?xml version="1.0" encoding="UTF-8"?>
<svg xmlns="http://www.w3.org/2000/svg" xmlns:xlink="http://www.w3.org/1999/xlink" width="30px" height="40px" viewBox="0 0 30 40" version="1.1">
<g id="surface1">
<path style="stroke:black;stroke-width:0.5;fill-rule:nonzero;fill:rgb(0%,0%,0%);fill-opacity:1;" d="M 25.050781 22.589844 L 25.050781 12.484375 C 25.050781 5.601562 19.546875 0 12.78125 0 L 0.109375 0 L 0.109375 12.894531 C 0.109375 19.777344 5.613281 25.378906 12.378906 25.378906 L 22.308594 25.378906 L 22.308594 34.683594 C 22.308594 36.074219 21.203125 37.210938 19.835938 37.210938 L 16.421875 37.210938 C 15.058594 37.210938 13.949219 36.074219 13.949219 34.683594 L 13.949219 32.367188 L 11.207031 32.367188 L 11.207031 34.683594 C 11.207031 37.621094 13.546875 40 16.421875 40 L 19.835938 40 C 22.710938 40 25.050781 37.621094 25.050781 34.683594 L 25.050781 25.378906 L 29.890625 25.378906 L 29.890625 22.589844 Z M 22.308594 22.589844 L 12.378906 22.589844 C 7.121094 22.589844 2.851562 18.242188 2.851562 12.894531 L 2.851562 2.789062 L 12.78125 2.789062 C 18.035156 2.789062 22.308594 7.136719 22.308594 12.484375 Z M 22.308594 22.589844 "/>
<path style="stroke:black;stroke-width:0.5;fill-rule:nonzero;fill:rgb(0%,0%,0%);fill-opacity:1;" d="M 14.269531 12.683594 C 14.269531 13.632812 13.515625 14.410156 12.585938 14.410156 C 11.652344 14.410156 10.886719 13.632812 10.886719 12.683594 C 10.886719 11.738281 11.644531 10.96875 12.585938 10.96875 C 13.527344 10.96875 14.269531 11.738281 14.269531 12.683594 Z M 14.269531 12.683594 "/>
</g>
</svg>
