<?xml version="1.0" standalone="no"?>
<!DOCTYPE svg PUBLIC "-//W3C//DTD SVG 20010904//EN"
 "http://www.w3.org/TR/2001/REC-SVG-20010904/DTD/svg10.dtd">
<svg version="1.0" xmlns="http://www.w3.org/2000/svg"
 width="512.000000pt" height="512.000000pt" viewBox="0 0 512.000000 512.000000"
 preserveAspectRatio="xMidYMid meet">

<g transform="translate(0.000000,512.000000) scale(0.100000,-0.100000)"
fill="#000000" stroke="none">
<path d="M2273 5110 c-968 -94 -1786 -726 -2122 -1638 -177 -482 -197 -1043
-55 -1540 187 -656 647 -1218 1254 -1535 365 -191 727 -279 1140 -280 382 -1
694 65 1045 219 l80 35 485 -167 c541 -187 597 -204 655 -204 47 0 127 20 170
42 142 74 223 255 183 408 -8 30 -92 280 -187 555 l-172 500 35 80 c109 247
174 482 207 750 16 130 16 454 0 575 -43 319 -127 589 -266 856 -115 220 -248
405 -420 583 -389 403 -872 655 -1423 742 -146 23 -464 33 -609 19z m495 -311
c299 -35 626 -149 879 -306 236 -147 483 -377 638 -596 209 -295 325 -570 391
-932 29 -157 27 -557 -4 -720 -42 -222 -113 -439 -197 -605 -27 -53 -38 -88
-38 -120 -1 -33 50 -192 185 -585 102 -297 189 -550 193 -562 9 -32 -36 -77
-68 -68 -12 4 -265 90 -562 192 -381 131 -553 186 -585 186 -33 0 -65 -10
-120 -38 -165 -84 -385 -156 -600 -195 -147 -28 -459 -38 -610 -21 -304 35
-612 137 -863 285 -306 180 -594 460 -776 754 -446 719 -432 1659 36 2358 471
703 1268 1072 2101 973z"/>
<path d="M2305 3821 c-312 -76 -538 -334 -574 -651 -11 -101 -2 -144 43 -188
29 -30 43 -36 88 -39 39 -3 62 1 88 15 43 24 80 91 80 146 0 254 260 470 516
428 199 -33 348 -186 377 -387 33 -229 -129 -454 -355 -495 -29 -6 -74 -13
-100 -16 -31 -3 -59 -15 -78 -31 -60 -50 -60 -49 -60 -431 0 -346 0 -349 23
-382 36 -54 68 -72 127 -72 56 0 87 16 124 66 20 26 21 43 24 296 l3 268 46
11 c123 31 262 118 359 225 76 83 119 155 157 263 40 114 49 278 22 400 -34
158 -136 325 -260 426 -79 64 -221 132 -317 151 -100 21 -244 19 -333 -3z"/>
<path d="M2410 1472 c-72 -36 -100 -122 -64 -198 36 -76 134 -105 208 -62 165
97 27 346 -144 260z"/>
</g>
</svg>
