<?xml version="1.0" encoding="UTF-8"?>
<svg xmlns="http://www.w3.org/2000/svg" xmlns:xlink="http://www.w3.org/1999/xlink" width="40px" height="40px" viewBox="0 0 40 40" version="1.1">
<g id="surface1">
<path style=" stroke:none;fill-rule:nonzero;fill:rgb(0%,0%,0%);fill-opacity:1;" d="M 17.757812 0.078125 C 10.195312 0.8125 3.804688 5.75 1.179688 12.875 C -0.203125 16.640625 -0.359375 21.023438 0.75 24.90625 C 2.210938 30.03125 5.804688 34.421875 10.546875 36.898438 C 13.398438 38.390625 16.226562 39.078125 19.453125 39.085938 C 22.4375 39.09375 24.875 38.578125 27.617188 37.375 L 28.242188 37.101562 L 32.03125 38.40625 C 36.257812 39.867188 36.695312 40 37.148438 40 C 37.515625 40 38.140625 39.84375 38.476562 39.671875 C 39.585938 39.09375 40.21875 37.679688 39.90625 36.484375 C 39.84375 36.25 39.1875 34.296875 38.445312 32.148438 L 37.101562 28.242188 L 37.375 27.617188 C 38.226562 25.6875 38.734375 23.851562 38.992188 21.757812 C 39.117188 20.742188 39.117188 18.210938 38.992188 17.265625 C 38.65625 14.773438 38 12.664062 36.914062 10.578125 C 36.015625 8.859375 34.976562 7.414062 33.632812 6.023438 C 30.59375 2.875 26.820312 0.90625 22.515625 0.226562 C 21.375 0.046875 18.890625 -0.03125 17.757812 0.078125 Z M 21.625 2.507812 C 23.960938 2.78125 26.515625 3.671875 28.492188 4.898438 C 30.335938 6.046875 32.265625 7.84375 33.476562 9.554688 C 35.109375 11.859375 36.015625 14.007812 36.53125 16.835938 C 36.757812 18.0625 36.742188 21.1875 36.5 22.460938 C 36.171875 24.195312 35.617188 25.890625 34.960938 27.1875 C 34.75 27.601562 34.664062 27.875 34.664062 28.125 C 34.65625 28.382812 35.054688 29.625 36.109375 32.695312 C 36.90625 35.015625 37.585938 36.992188 37.617188 37.085938 C 37.6875 37.335938 37.335938 37.6875 37.085938 37.617188 C 36.992188 37.585938 35.015625 36.914062 32.695312 36.117188 C 29.71875 35.09375 28.375 34.664062 28.125 34.664062 C 27.867188 34.664062 27.617188 34.742188 27.1875 34.960938 C 25.898438 35.617188 24.179688 36.179688 22.5 36.484375 C 21.351562 36.703125 18.914062 36.78125 17.734375 36.648438 C 15.359375 36.375 12.953125 35.578125 10.992188 34.421875 C 8.601562 33.015625 6.351562 30.828125 4.929688 28.53125 C 1.445312 22.914062 1.554688 15.570312 5.210938 10.109375 C 8.890625 4.617188 15.117188 1.734375 21.625 2.507812 Z M 21.625 2.507812 "/>
<path style=" stroke:none;fill-rule:nonzero;fill:rgb(0%,0%,0%);fill-opacity:1;" d="M 18.007812 10.148438 C 15.570312 10.742188 13.804688 12.757812 13.523438 15.234375 C 13.4375 16.023438 13.507812 16.359375 13.859375 16.703125 C 14.085938 16.9375 14.195312 16.984375 14.546875 17.007812 C 14.851562 17.03125 15.03125 17 15.234375 16.890625 C 15.570312 16.703125 15.859375 16.179688 15.859375 15.75 C 15.859375 13.765625 17.890625 12.078125 19.890625 12.40625 C 21.445312 12.664062 22.609375 13.859375 22.835938 15.429688 C 23.09375 17.21875 21.828125 18.976562 20.0625 19.296875 C 19.835938 19.34375 19.484375 19.398438 19.28125 19.421875 C 19.039062 19.445312 18.820312 19.539062 18.671875 19.664062 C 18.203125 20.054688 18.203125 20.046875 18.203125 23.03125 C 18.203125 25.734375 18.203125 25.757812 18.382812 26.015625 C 18.664062 26.4375 18.914062 26.578125 19.375 26.578125 C 19.8125 26.578125 20.054688 26.453125 20.34375 26.0625 C 20.5 25.859375 20.507812 25.726562 20.53125 23.75 L 20.554688 21.65625 L 20.914062 21.570312 C 21.875 21.328125 22.960938 20.648438 23.71875 19.8125 C 24.3125 19.164062 24.648438 18.601562 24.945312 17.757812 C 25.257812 16.867188 25.328125 15.585938 25.117188 14.632812 C 24.851562 13.398438 24.054688 12.09375 23.085938 11.304688 C 22.46875 10.804688 21.359375 10.273438 20.609375 10.125 C 19.828125 9.960938 18.703125 9.976562 18.007812 10.148438 Z M 18.007812 10.148438 "/>
<path style=" stroke:none;fill-rule:nonzero;fill:rgb(0%,0%,0%);fill-opacity:1;" d="M 18.828125 28.5 C 18.265625 28.78125 18.046875 29.453125 18.328125 30.046875 C 18.609375 30.640625 19.375 30.867188 19.953125 30.53125 C 21.242188 29.773438 20.164062 27.828125 18.828125 28.5 Z M 18.828125 28.5 "/>
</g>
</svg>
