<svg viewBox="0 0 256 256" xmlns="http://www.w3.org/2000/svg"><path d="m229.95117 33.252a13.96536 13.96536 0 0 0 -14.2539-2.42187l-184.55713 72.50487a14.00006 14.00006 0 0 0 2.37353 26.75879l48.48633 9.69676v60.19385a13.99436 13.99436 0 0 0 23.89941 9.89843l27.26959-27.26928 40.7851 35.89135a13.88378 13.88378 0 0 0 9.20215 3.502 14.14473 14.14473 0 0 0 4.34277-.68848 13.88364 13.88364 0 0 0 9.34961-10.19726l37.61328-164.13286a13.967 13.967 0 0 0 -4.51074-13.7363zm-195.68408 83.29a1.85417 1.85417 0 0 1 1.26074-2.03711l154.42774-60.66844-103.34619 74.63842-50.74268-10.14868a1.85412 1.85412 0 0 1 -1.59961-1.78419zm63.147 84.85645a1.99983 1.99983 0 0 1 -3.41409-1.41405v-51.84009l30.14258 26.52588zm87.7378 7.042a2.00059 2.00059 0 0 1 -3.271 1.05567l-84.27347-74.16138 124.9834-90.26538z"/></svg>