<?xml version="1.0" encoding="UTF-8"?>
<svg xmlns="http://www.w3.org/2000/svg" xmlns:xlink="http://www.w3.org/1999/xlink" width="40px" height="40px" viewBox="0 0 40 40" version="1.1">
<g id="surface1">
<path style=" stroke:none;fill-rule:nonzero;fill:rgb(0%,0%,0%);fill-opacity:1;" d="M 35.929688 5.195312 C 35.316406 4.664062 34.457031 4.519531 33.703125 4.816406 L 4.867188 16.144531 C 3.960938 16.5 3.402344 17.410156 3.488281 18.375 C 3.574219 19.34375 4.285156 20.136719 5.238281 20.328125 L 12.8125 21.84375 L 12.8125 31.246094 C 12.8125 32.132812 13.34375 32.929688 14.164062 33.269531 C 14.980469 33.609375 15.921875 33.421875 16.546875 32.792969 L 20.808594 28.535156 L 27.179688 34.140625 C 27.578125 34.492188 28.089844 34.6875 28.617188 34.6875 C 28.847656 34.6875 29.078125 34.652344 29.296875 34.582031 C 30.03125 34.347656 30.589844 33.742188 30.757812 32.988281 L 36.632812 7.34375 C 36.816406 6.550781 36.546875 5.722656 35.929688 5.195312 Z M 5.355469 18.210938 C 5.332031 18.070312 5.417969 17.933594 5.550781 17.890625 L 29.679688 8.410156 L 13.53125 20.074219 L 5.605469 18.488281 C 5.464844 18.46875 5.359375 18.351562 5.355469 18.210938 Z M 15.222656 31.46875 C 15.132812 31.558594 14.996094 31.585938 14.878906 31.535156 C 14.761719 31.488281 14.6875 31.375 14.6875 31.246094 L 14.6875 23.148438 L 19.398438 27.292969 Z M 28.929688 32.570312 C 28.90625 32.675781 28.824219 32.761719 28.722656 32.796875 C 28.617188 32.832031 28.5 32.804688 28.417969 32.734375 L 15.25 21.144531 L 34.78125 7.042969 Z M 28.929688 32.570312 "/>
</g>
</svg>
