<?xml version="1.0" encoding="UTF-8"?>
<svg xmlns="http://www.w3.org/2000/svg" xmlns:xlink="http://www.w3.org/1999/xlink" width="40px" height="40px" viewBox="0 0 40 40" version="1.1">
<g id="surface1">
<path style="stroke:black;stroke-width:0.4;fill-rule:nonzero;fill:rgb(0%,0%,0%);fill-opacity:1;" d="M 31.484375 5.164062 C 31.257812 5.265625 30.757812 5.695312 30.039062 6.414062 L 28.9375 7.5 L 18.851562 7.5 C 11.789062 7.5 8.640625 7.523438 8.34375 7.585938 C 6.8125 7.898438 5.476562 9.203125 5.117188 10.710938 C 4.945312 11.460938 4.945312 31.039062 5.117188 31.789062 C 5.390625 32.945312 6.273438 34.046875 7.34375 34.546875 C 7.664062 34.703125 8.117188 34.867188 8.34375 34.914062 C 8.632812 34.976562 11.796875 35 18.734375 35 C 27 35 28.796875 34.976562 29.226562 34.890625 C 30.796875 34.554688 32.132812 33.179688 32.414062 31.601562 C 32.476562 31.28125 32.5 27.976562 32.5 21.101562 L 32.5 11.070312 L 33.617188 9.929688 C 34.851562 8.679688 35.054688 8.34375 34.984375 7.710938 C 34.921875 7.15625 34.71875 6.851562 33.84375 6 C 33.226562 5.398438 32.921875 5.164062 32.6875 5.09375 C 32.226562 4.960938 31.890625 4.976562 31.484375 5.164062 Z M 32.75 7.242188 C 33.046875 7.53125 33.28125 7.804688 33.28125 7.851562 C 33.28125 7.890625 31.148438 10.0625 28.539062 12.671875 L 23.789062 17.421875 L 22.578125 17.421875 L 22.578125 16.210938 L 27.320312 11.46875 C 29.9375 8.851562 32.101562 6.71875 32.148438 6.71875 C 32.1875 6.71875 32.460938 6.953125 32.75 7.242188 Z M 24.203125 12.242188 C 22.5 13.953125 21.070312 15.429688 21.023438 15.523438 C 20.96875 15.625 20.9375 16.234375 20.9375 17.109375 L 20.9375 18.53125 L 21.46875 19.0625 L 22.890625 19.0625 C 23.765625 19.0625 24.375 19.03125 24.476562 18.976562 C 24.570312 18.929688 26.046875 17.5 27.757812 15.789062 L 30.859375 12.695312 L 30.84375 22.03125 L 30.820312 31.367188 L 30.617188 31.796875 C 30.328125 32.421875 29.984375 32.773438 29.390625 33.0625 L 28.867188 33.320312 L 8.632812 33.320312 L 8.109375 33.0625 C 7.515625 32.773438 7.171875 32.421875 6.882812 31.796875 L 6.679688 31.367188 L 6.679688 11.132812 L 6.882812 10.703125 C 7.25 9.929688 7.789062 9.460938 8.585938 9.25 C 8.859375 9.171875 11.109375 9.148438 18.125 9.148438 L 27.304688 9.140625 Z M 24.203125 12.242188 "/>
</g>
</svg>
