<?xml version="1.0" standalone="no"?>
<!DOCTYPE svg PUBLIC "-//W3C//DTD SVG 20010904//EN"
 "http://www.w3.org/TR/2001/REC-SVG-20010904/DTD/svg10.dtd">
<svg version="1.0" xmlns="http://www.w3.org/2000/svg"
 width="512.000000pt" height="512.000000pt" viewBox="0 0 512.000000 512.000000"
 preserveAspectRatio="xMidYMid meet">

<g transform="translate(0.000000,512.000000) scale(0.100000,-0.100000)"
fill="#000000" stroke="none">
<path d="M4030 4459 c-29 -13 -93 -68 -185 -160 l-141 -139 -1291 0 c-904 0
-1307 -3 -1345 -11 -196 -40 -367 -207 -413 -400 -22 -96 -22 -2602 0 -2698
35 -148 148 -289 285 -353 41 -20 99 -41 128 -47 37 -8 442 -11 1330 -11 1058
0 1288 3 1343 14 201 43 372 219 408 421 8 41 11 464 11 1344 l0 1284 143 146
c158 160 184 203 175 284 -8 71 -34 110 -146 219 -79 77 -118 107 -148 116
-59 17 -102 15 -154 -9z m162 -266 c38 -37 68 -72 68 -78 0 -5 -273 -283 -607
-617 l-608 -608 -77 0 -78 0 0 77 0 78 607 607 c335 335 612 608 618 608 5 0
40 -30 77 -67z m-1094 -640 c-218 -219 -401 -408 -407 -420 -7 -13 -11 -91
-11 -203 l0 -182 34 -34 34 -34 182 0 c112 0 190 4 203 11 12 6 201 189 420
408 l397 396 -2 -1195 -3 -1195 -26 -55 c-37 -80 -81 -125 -157 -162 l-67 -33
-1295 0 -1295 0 -67 33 c-76 37 -120 82 -157 162 l-26 55 0 1295 0 1295 26 55
c47 99 116 159 218 186 35 10 323 13 1221 13 l1175 1 -397 -397z"/>
</g>
</svg>
